<?xml version="1.0" encoding="UTF-8" standalone="no"?>
<svg
   width="32"
   height="32"
   viewBox="0 0 24 24"
   version="1.1"
   id="svg4"
   sodipodi:docname="CiShoppingBag02.svg"
   inkscape:version="1.2.2 (b0a8486541, 2022-12-01)"
   xmlns:inkscape="http://www.inkscape.org/namespaces/inkscape"
   xmlns:sodipodi="http://sodipodi.sourceforge.net/DTD/sodipodi-0.dtd"
   xmlns="http://www.w3.org/2000/svg"
   xmlns:svg="http://www.w3.org/2000/svg">
  <defs
     id="defs8" />
  <sodipodi:namedview
     id="namedview6"
     pagecolor="#ffffff"
     bordercolor="#666666"
     borderopacity="1.0"
     inkscape:showpageshadow="2"
     inkscape:pageopacity="0.0"
     inkscape:pagecheckerboard="0"
     inkscape:deskcolor="#d1d1d1"
     showgrid="false"
     inkscape:zoom="20.85965"
     inkscape:cx="23.658115"
     inkscape:cy="20.589991"
     inkscape:window-width="2560"
     inkscape:window-height="1540"
     inkscape:window-x="2560"
     inkscape:window-y="0"
     inkscape:window-maximized="1"
     inkscape:current-layer="svg4" />
  <path
     fill="none"
     stroke="currentColor"
     stroke-linecap="round"
     stroke-linejoin="round"
     stroke-width="2"
     d="M 8,8 H 6.777 c -1.3,0 -1.949,0 -2.41,0.265 -0.406,0.233 -0.718,0.6 -0.881,1.039 -0.185,0.499 -0.079,1.14 0.135,2.42 v 0.002 l 0.933,5.6 c 0.159,0.95 0.238,1.425 0.475,1.782 0.21,0.314 0.503,0.562 0.847,0.717 C 6.266,20 6.748,20 7.711,20 h 8.578 c 0.963,0 1.444,0 1.835,-0.175 0.344,-0.155 0.638,-0.403 0.847,-0.717 0.237,-0.357 0.316,-0.832 0.474,-1.782 l 0.934,-5.6 v -0.004 c 0.214,-1.28 0.32,-1.92 0.135,-2.418 C 20.351214,8.8654032 20.039824,8.4977509 19.634,8.265 19.173,8 18.523,8 17.223,8 H 16 M 8,8 h 8"
     id="path2"
     sodipodi:nodetypes="cscccccccsscccccccsccc" />
  <path
     d="m 8,7.1831364 c 0,-5.333331 8,-5.333331 8,0"
     style="fill:none;stroke:currentColor;stroke-width:2;stroke-linecap:round;stroke-linejoin:round"
     id="path363" />
</svg>
