<svg xmlns="http://www.w3.org/2000/svg" width="32" height="32" viewBox="0 0 26 26">
    <mask id="mask" maskUnits="userSpaceOnUse" x="0" y="0" width="26" height="26">
        <rect width="26" height="26" fill="white"/>
        <path d="M18.544 12.59a1 1 0 0 1-.053 1.728L9.476 19.2A1 1 0 0 1 8 18.321V7.804a1 1 0 0 1 1.53-.848l9.014 5.634Z"/>
        <path fill-rule="evenodd" d="M13 24c6.075 0 11-4.925 11-11S19.075 2 13 2S2 6.925 2 13s4.925 11 11 11Zm0 2c7.18 0 13-5.82 13-13S20.18 0 13 0S0 5.82 0 13s5.82 13 13 13Z" clip-rule="evenodd"/>
    </mask>
    <rect width="26" height="26" fill="currentColor" mask="url(#mask)"/>
</svg>
