<?xml version="1.0" standalone="no"?>
<!DOCTYPE svg PUBLIC "-//W3C//DTD SVG 20010904//EN"
 "http://www.w3.org/TR/2001/REC-SVG-20010904/DTD/svg10.dtd">
<svg version="1.0" xmlns="http://www.w3.org/2000/svg"
 width="576.000000pt" height="576.000000pt" viewBox="0 0 576.000000 576.000000"
 preserveAspectRatio="xMidYMid meet">
<metadata>
Created by potrace 1.14, written by Peter Selinger 2001-2017
</metadata>
<g transform="translate(0.000000,576.000000) scale(0.100000,-0.100000)"
fill="#000000" stroke="none">
<path d="M3127 5384 c-1 -1 -45 -5 -97 -8 -102 -8 -106 -8 -190 -21 -59 -9
-69 -11 -72 -15 -2 -1 -12 -3 -23 -5 -103 -15 -410 -102 -440 -125 -5 -4 -23
-10 -40 -14 -16 -4 -38 -15 -49 -24 -10 -9 -20 -16 -22 -14 -9 6 -171 -85
-245 -137 -373 -268 -549 -552 -595 -961 -8 -76 -8 -301 0 -345 3 -16 9 -50
12 -75 18 -149 89 -317 199 -469 25 -36 227 -230 280 -271 91 -69 165 -120
175 -120 4 0 10 -4 12 -9 8 -22 299 -179 499 -270 143 -64 341 -151 345 -151
2 0 28 -11 59 -25 30 -14 57 -26 60 -26 11 -1 298 -150 324 -169 16 -11 34
-20 40 -20 6 0 11 -4 11 -8 0 -4 13 -16 30 -25 92 -55 191 -191 194 -267 1
-16 3 -30 7 -30 6 0 3 -93 -5 -140 -9 -52 -51 -130 -96 -177 -21 -24 -41 -43
-44 -43 -3 0 -16 -10 -29 -23 -59 -54 -329 -165 -442 -182 -23 -3 -52 -7 -65
-10 -141 -27 -311 -27 -480 -1 -72 11 -290 78 -370 113 -343 150 -565 346
-605 533 -14 66 -21 72 -76 65 -27 -3 -62 -10 -79 -15 -17 -5 -33 -9 -35 -9
-3 -1 -6 -1 -7 -2 -8 -2 -36 -9 -60 -14 -91 -19 -275 -108 -337 -164 -19 -17
-37 -32 -41 -33 -16 -7 -80 -107 -101 -158 -27 -66 -32 -222 -10 -280 17 -45
64 -144 71 -150 3 -3 17 -21 30 -40 22 -34 144 -158 205 -210 25 -21 135 -95
220 -147 134 -83 496 -220 655 -250 14 -2 43 -9 65 -14 22 -5 58 -12 80 -15
22 -3 51 -7 65 -10 14 -2 48 -7 75 -9 28 -3 70 -8 95 -11 127 -16 659 -2 785
20 17 2 50 8 75 11 25 3 70 10 100 16 30 6 71 12 90 15 19 3 62 12 95 20 33 9
69 18 80 20 70 14 265 80 370 126 50 22 98 42 108 45 9 3 17 9 17 14 0 5 9 9
20 9 11 0 20 5 20 10 0 6 6 10 13 11 11 0 54 27 163 100 118 79 250 220 347
369 37 56 94 198 118 290 27 105 35 371 15 493 -7 42 -11 77 -8 77 2 0 0 6 -5
13 -5 6 -10 21 -10 33 -2 29 -60 177 -95 243 -86 159 -307 390 -425 444 -13 6
-23 14 -23 19 0 4 -4 8 -10 8 -5 0 -33 14 -62 31 -56 34 -349 181 -433 219
-27 12 -70 31 -95 42 -25 11 -81 37 -125 58 -97 46 -156 72 -171 75 -5 2 -35
14 -65 27 -30 14 -81 35 -114 48 -33 13 -68 31 -79 40 -10 8 -19 14 -20 12 -4
-9 -249 109 -305 147 -14 10 -46 31 -71 47 -45 29 -122 105 -122 121 1 4 -5
15 -13 23 -35 41 -53 253 -30 365 49 239 192 433 400 542 57 29 163 66 230 78
179 34 554 19 730 -29 80 -21 105 -29 130 -40 17 -7 51 -22 77 -32 27 -11 48
-22 48 -26 0 -5 6 -8 13 -8 16 0 94 -65 107 -89 6 -12 4 -39 -5 -78 -16 -67
-21 -94 -30 -138 -3 -16 -10 -50 -15 -75 -5 -25 -12 -61 -15 -80 -4 -19 -10
-53 -15 -75 -5 -22 -12 -60 -15 -85 -4 -24 -8 -47 -10 -50 -7 -12 -18 -129
-17 -175 6 -180 105 -320 247 -349 17 -3 44 -8 60 -11 59 -12 192 -3 225 15 8
4 18 8 23 9 4 0 23 7 42 15 20 9 38 15 42 15 3 -1 9 3 12 8 3 4 26 24 51 43
25 19 58 50 75 69 16 19 35 39 40 45 62 67 150 236 195 375 56 175 73 309 54
435 -4 28 -8 56 -9 61 -3 33 -43 141 -77 210 -74 147 -171 264 -304 365 -32
25 -60 48 -62 53 -2 4 -8 7 -13 7 -5 0 -27 11 -49 25 -39 25 -159 86 -230 118
-153 69 -427 141 -615 162 -33 4 -78 9 -100 11 -107 12 -499 26 -508 18z"/>
</g>
</svg>
